<?xml version="1.0" encoding="utf-8"?>
<!-- Generator: Adobe Illustrator 16.0.0, SVG Export Plug-In . SVG Version: 6.00 Build 0)  -->
<!DOCTYPE svg PUBLIC "-//W3C//DTD SVG 1.1//EN" "http://www.w3.org/Graphics/SVG/1.1/DTD/svg11.dtd">
<svg version="1.1" id="logo_1_" xmlns="http://www.w3.org/2000/svg" xmlns:xlink="http://www.w3.org/1999/xlink" x="0px" y="0px"
	 width="78px" height="16px" viewBox="0 0 78 16" enable-background="new 0 0 78 16" xml:space="preserve">
<g id="logo">
	<g>
		<path fill-rule="evenodd" clip-rule="evenodd" fill="#8997A6" d="M4.013,3.864c-2.404,0-3.958,1.773-3.958,4.519
			c0,2.233,1.219,4.487,3.942,4.487c2.449,0,4.095-1.822,4.095-4.533c0-1.224-0.377-2.389-1.034-3.193
			C6.364,4.283,5.367,3.864,4.013,3.864z M4.013,11.189c-1.898,0-2.046-2.184-2.046-2.853c0-0.684,0.182-1.416,0.475-1.912
			c0.36-0.608,0.873-0.88,1.663-0.88c0.503,0,1.185,0.128,1.578,0.739c0.312,0.479,0.498,1.224,0.498,1.991
			C6.181,9.364,5.9,11.189,4.013,11.189z M21.166,3.374c0.667,0,1.116-0.448,1.116-1.115c0-1.217-1.276-1.771-2.461-1.771
			c-1.934,0-2.92,1.023-2.934,3.043c0,0.013,0,0.321,0,0.334c-0.057,0.002-0.128,0-0.198,0h-0.595c-0.504,0-0.857,0.358-0.857,0.871
			c0,0.564,0.36,0.901,0.963,0.901h0.68c0.003,0.032,0.006,0.462,0.006,0.533v4.532c0,0.463-0.103,0.546-0.121,0.548
			c-0.105,0-0.211-0.021-0.323-0.043c-0.121-0.023-0.247-0.048-0.379-0.048c-0.48,0-0.841,0.354-0.841,0.825
			c0,0.463,0.466,0.886,0.979,0.886c0.279,0,0.527-0.041,0.768-0.081c0.257-0.043,0.523-0.087,0.852-0.087
			c0.439,0,0.711,0.051,0.952,0.096c0.199,0.037,0.387,0.072,0.621,0.072c0.481,0,0.979-0.332,0.979-0.886
			c0-0.471-0.361-0.825-0.841-0.825c-0.133,0-0.258,0.024-0.379,0.048c-0.112,0.022-0.22,0.043-0.347,0.04
			c-0.001,0-0.098-0.078-0.098-0.529l0.001-5.081h0.914c0.938,0,1.04-0.63,1.04-0.901c0-0.325-0.133-0.871-1.024-0.871h-0.93
			c0-0.017,0-0.331,0-0.354c0-0.961,0.375-1.448,1.114-1.448c0.156,0,0.276,0.012,0.368,0.036c-0.029,0.083-0.047,0.178-0.047,0.283
			C20.142,2.929,20.601,3.374,21.166,3.374z M14.599,3.374c0.668,0,1.116-0.448,1.116-1.115c0-1.217-1.275-1.771-2.46-1.771
			c-1.934,0-2.921,1.023-2.934,3.043c0,0.013,0,0.321,0,0.334c-0.057,0.002-0.128,0-0.198,0H9.528c-0.504,0-0.857,0.358-0.857,0.871
			c0,0.564,0.36,0.901,0.964,0.901h0.68c0.003,0.032,0.006,0.462,0.006,0.533v4.532c0,0.463-0.103,0.546-0.121,0.548
			c-0.105,0-0.21-0.021-0.323-0.043c-0.121-0.023-0.246-0.048-0.379-0.048c-0.479,0-0.841,0.354-0.841,0.825
			c0,0.463,0.466,0.886,0.979,0.886c0.278,0,0.527-0.041,0.767-0.081c0.257-0.043,0.523-0.087,0.852-0.087
			c0.439,0,0.712,0.051,0.953,0.096c0.199,0.037,0.387,0.072,0.621,0.072c0.481,0,0.979-0.332,0.979-0.886
			c0-0.471-0.361-0.825-0.841-0.825c-0.133,0-0.259,0.024-0.38,0.048c-0.112,0.022-0.22,0.043-0.347,0.04
			c-0.001,0-0.098-0.078-0.098-0.529l0.001-5.081h0.914c0.938,0,1.04-0.63,1.04-0.901c0-0.325-0.133-0.871-1.025-0.871h-0.93
			c0-0.017,0-0.331,0-0.354c0-0.961,0.375-1.448,1.114-1.448c0.155,0,0.275,0.012,0.368,0.036c-0.029,0.083-0.048,0.178-0.048,0.283
			C13.575,2.929,14.034,3.374,14.599,3.374z M25.983,11.16L25.983,11.16c-0.176-0.013-0.343,0.027-0.469,0.059
			c-0.062,0.015-0.131,0.031-0.176,0.032c-0.013-0.011-0.063-0.094-0.063-0.305V4.842c0-0.907-0.574-0.978-0.75-0.978
			c-0.185,0-0.336,0.048-0.471,0.091c-0.132,0.041-0.246,0.077-0.4,0.077c-0.135,0-0.252-0.032-0.389-0.068
			c-0.17-0.047-0.364-0.1-0.619-0.1c-0.488,0-0.856,0.381-0.856,0.887c0,0.47,0.362,0.825,0.841,0.825
			c0.133,0,0.259-0.025,0.379-0.049c0.112-0.022,0.219-0.043,0.323-0.043c0.017,0,0.028,0,0.034,0
			c0.036,0.059,0.087,0.264,0.087,0.96v3.846c0,0.743-0.066,0.924-0.121,0.96c-0.104,0-0.211-0.021-0.323-0.043
			c-0.121-0.023-0.246-0.048-0.379-0.048c-0.479,0-0.841,0.354-0.841,0.825c0,0.463,0.401,0.886,0.841,0.886
			c0.281,0,0.538-0.042,0.786-0.083c0.257-0.041,0.523-0.085,0.833-0.085c0.32,0,0.578,0.044,0.827,0.087
			c0.233,0.04,0.474,0.081,0.746,0.081c0.481,0,0.979-0.332,0.979-0.886C26.802,11.514,26.441,11.16,25.983,11.16z M24.097,2.886
			c0.666,0,1.208-0.541,1.208-1.207c0-0.656-0.542-1.191-1.208-1.191c-0.658,0-1.192,0.535-1.192,1.191
			C22.905,2.345,23.439,2.886,24.097,2.886z M33.92,9.212c-0.729,0-0.887,0.658-0.981,1.052l-0.031,0.131
			c-0.256,0.846-1.117,0.795-1.599,0.795c-1.884,0-2.031-2.16-2.031-2.822c0-1.048,0.443-2.822,2.107-2.822
			c0.462,0,1.081,0.213,1.288,0.615c-0.435,0.145-0.724,0.507-0.724,0.956c0,0.65,0.537,1.16,1.223,1.16
			c0.878,0,1.468-0.687,1.468-1.71c0-0.79-0.456-1.613-1.16-2.094c-0.539-0.381-1.3-0.608-2.033-0.608
			c-2.479,0-4.08,1.827-4.08,4.655c0,2.562,1.59,4.351,3.866,4.351c1.084,0,2.143-0.39,2.785-1.095
			c0.445-0.479,0.821-0.969,0.821-1.647C34.838,9.631,34.417,9.212,33.92,9.212z M39.435,3.864c-1.211,0-2.327,0.534-3.064,1.468
			c-0.625,0.802-0.969,1.929-0.969,3.173c0,2.651,1.553,4.365,3.957,4.365c1.058,0,2.071-0.364,2.709-0.972
			c0.5-0.464,0.94-1.056,0.94-1.785c0-0.514-0.401-0.901-0.933-0.901c-0.636,0-0.786,0.535-0.877,0.855l-0.013,0.047
			c-0.242,0.825-0.892,1.075-1.735,1.075c-0.598,0-1.09-0.197-1.465-0.587c-0.402-0.418-0.641-1.042-0.673-1.746h4.856
			c0.974,0,1.055-0.279,1.055-1.146C43.224,5.446,41.666,3.864,39.435,3.864z M37.502,7.115c0.217-0.952,0.977-1.57,1.979-1.57
			c0.969,0,1.62,0.58,1.793,1.57H37.502z M49.517,9.212c-0.933,0-0.933,0.932-0.933,1.282v-0.035c0,0.662-0.366,0.7-0.763,0.7
			c-0.408,0-0.794,0-0.794-1.495V5.622c0.021,0,0.046,0,0.075,0h1.345c0.948,0,1.146-0.474,1.146-0.871
			c0-0.887-0.828-0.887-1.101-0.887h-1.466V1.572c0-0.896-0.49-1.085-0.902-1.085c-0.917,0-0.917,0.828-0.917,1.101v2.109
			c0,0.069-0.001,0.125-0.003,0.167h-0.516c-0.473,0-0.902,0.415-0.902,0.871c0,0.887,0.816,0.887,1.208,0.887
			c0.108,0,0.17,0.004,0.204,0.009c0.004,0.035,0.009,0.096,0.009,0.203v3.738c0,1.23,0.07,1.685,0.344,2.212
			c0.369,0.69,1.13,1.086,2.086,1.086c2.184,0,2.766-1.431,2.766-2.604C50.403,9.625,50.056,9.212,49.517,9.212z M59.293,9.212
			c-0.243,0-0.438,0.071-0.578,0.214c-0.242,0.244-0.237,0.598-0.233,0.91l0.001,0.112c0,0.053,0.001-0.215,0.003-0.15
			c0.006,0.26,0.018,0.743-0.123,0.887c-0.012,0.013-0.034,0.035-0.108,0.035s-0.105-0.022-0.129-0.047
			c-0.183-0.191-0.151-0.82-0.137-1.123l0.068-2.929c0.016-0.939-0.091-1.901-0.967-2.58c-0.771-0.589-1.765-0.677-2.287-0.677
			c-0.816,0-1.639,0.232-2.202,0.624c-0.688,0.485-1.084,1.153-1.084,1.834c0,0.729,0.558,1.299,1.27,1.299
			c0.653,0,1.146-0.447,1.146-1.039c0-0.352-0.126-0.562-0.257-0.69c0.023-0.017,0.051-0.035,0.083-0.056
			c0.305-0.179,0.692-0.291,1.013-0.291c0.641,0,1.404,0.183,1.404,1.052c0,0.626-0.46,0.767-1.56,0.861
			c-0.093,0.008-0.185,0.016-0.281,0.025l-0.101,0.013c-0.735,0.089-1.371,0.166-2.069,0.579c-0.784,0.459-1.198,1.225-1.198,2.215
			c0,0.854,0.428,1.615,1.174,2.088c0.521,0.326,1.189,0.492,1.989,0.492c0.997,0,1.822-0.3,2.383-0.854
			c0.318,0.5,0.908,0.793,1.65,0.793c0.73,0,1.286-0.236,1.602-0.678c0.385-0.513,0.385-0.783,0.385-1.973
			C60.149,9.304,59.551,9.212,59.293,9.212z M56.13,9.222c0,0.532-0.053,0.915-0.315,1.284c-0.457,0.595-1.242,0.684-1.669,0.684
			c-0.298,0-1.267-0.069-1.267-0.96c0-0.624,0.419-0.906,1.498-1.009l0.206-0.02c0.507-0.05,1.062-0.104,1.553-0.334
			C56.132,8.987,56.13,9.104,56.13,9.222z M67.155,10.275c-0.891-0.297-1.799-0.322-2.652-0.322h-0.565
			c-0.875,0-1.282-0.145-1.282-0.457c0-0.15,0.112-0.334,0.243-0.334c0.047,0,0.173,0.032,0.285,0.08
			c0.692,0.299,1.291,0.438,1.884,0.438c1.563,0,3.225-1.017,3.225-2.9c0-0.94-0.452-1.814-1.19-2.326
			c0.014-0.172,0.067-0.315,0.155-0.407c0.085-0.091,0.203-0.135,0.362-0.135c0.052,0,0.101,0.006,0.144,0.016
			c-0.089,0.122-0.16,0.278-0.16,0.472c0,0.506,0.418,0.917,0.933,0.917c0.167,0,0.32-0.037,0.457-0.102l-0.281-0.281
			c-0.327-0.024-0.585-0.294-0.585-0.626c0-0.348,0.282-0.63,0.631-0.63c0.332,0,0.602,0.257,0.626,0.583l0.233,0.232
			c0.042-0.125,0.065-0.255,0.065-0.384c0-1.122-1.029-1.71-2.048-1.71c-0.634,0-1.221,0.234-1.611,0.642
			c-0.233,0.244-0.382,0.537-0.44,0.859c-0.215-0.03-0.423-0.036-0.621-0.036c-1.57,0-3.239,0.974-3.239,2.778
			c0,0.332,0.051,0.77,0.258,1.172c-0.705,0.336-1.113,0.948-1.113,1.697c0,0.777,0.44,1.219,0.862,1.472
			c-0.64,0.407-1.016,1.058-1.016,1.81c0,2.493,3.205,2.687,4.187,2.687c1.967,0,4.264-0.724,4.264-2.763
			C69.163,11.606,68.412,10.693,67.155,10.275z M65.007,5.499c0.69,0,1.439,0.442,1.465,1.241c-0.025,0.881-0.762,1.275-1.48,1.275
			c-0.641,0-1.389-0.328-1.389-1.251C63.603,5.935,64.309,5.499,65.007,5.499z M64.915,13.845c-0.444,0-1.074-0.055-1.506-0.209
			c-0.38-0.142-0.784-0.441-0.784-0.858c0-0.471,0.438-0.733,0.628-0.824c0.353-0.171,0.997-0.273,1.724-0.273
			c0.684,0,2.274,0.104,2.274,1.067C67.251,13.814,65.154,13.845,64.915,13.845z M68.593,4.145c-0.09,0.089-0.09,0.236,0,0.325
			l2.333,2.33c0.09,0.09,0.236,0.09,0.326,0c0.09-0.089,0.09-0.236,0-0.325l-2.333-2.33C68.829,4.055,68.683,4.055,68.593,4.145z
			 M77.655,9.634l-4.041-4.036c-0.272-0.262-0.628-0.386-0.979-0.373l-1.55,0.012c-0.397,0-0.593,0.218-0.593,0.218l0.381,0.38
			c0.276-0.073,0.585-0.002,0.803,0.215C72,6.374,72,6.899,71.676,7.224c-0.325,0.324-0.852,0.324-1.176,0
			c-0.218-0.218-0.289-0.525-0.215-0.802l-0.381-0.381c0,0-0.219,0.195-0.219,0.593l-0.011,1.548
			c-0.013,0.352,0.11,0.707,0.372,0.979l4.041,4.036c0.206,0.206,0.543,0.206,0.749,0l2.818-2.815
			C77.861,10.176,77.861,9.839,77.655,9.634z"/>
	</g>
</g>
</svg>
