<?xml version="1.0" encoding="utf-8"?>
<!-- Generator: Adobe Illustrator 16.0.0, SVG Export Plug-In . SVG Version: 6.00 Build 0)  -->
<!DOCTYPE svg PUBLIC "-//W3C//DTD SVG 1.1//EN" "http://www.w3.org/Graphics/SVG/1.1/DTD/svg11.dtd">
<svg version="1.1" id="icon_1_" xmlns="http://www.w3.org/2000/svg" xmlns:xlink="http://www.w3.org/1999/xlink" x="0px" y="0px"
	 width="17px" height="17px" viewBox="0 0 17 17" enable-background="new 0 0 17 17" xml:space="preserve">
<g id="icon">
	<g>
		<path fill-rule="evenodd" clip-rule="evenodd" fill="#D2D2D2" d="M16.338,14.677l-4.49-4.49c1.61-2.415,1.352-5.708-0.779-7.839
			c-2.429-2.428-6.365-2.428-8.793,0c-2.428,2.428-2.428,6.364,0,8.792c2.131,2.132,5.424,2.391,7.839,0.781l4.49,4.489
			c0.479,0.479,1.255,0.479,1.733,0C16.816,15.932,16.816,15.155,16.338,14.677z M10.015,8.354C9.975,8.438,9.93,8.521,9.883,8.602
			c-0.01,0.017-0.02,0.033-0.029,0.05C9.813,8.722,9.768,8.79,9.722,8.857C9.695,8.896,9.668,8.933,9.64,8.97
			C9.604,9.019,9.567,9.067,9.528,9.115C9.455,9.202,9.379,9.288,9.297,9.37S9.13,9.527,9.043,9.601
			C8.995,9.64,8.945,9.676,8.896,9.712C8.86,9.74,8.823,9.768,8.785,9.794C8.718,9.841,8.649,9.885,8.579,9.926
			c-0.016,0.01-0.032,0.02-0.049,0.029c-0.082,0.047-0.165,0.092-0.249,0.132c-1.382,0.666-3.09,0.429-4.236-0.717
			C2.899,8.224,2.663,6.517,3.328,5.134C3.369,5.05,3.413,4.967,3.46,4.886c0.009-0.017,0.019-0.033,0.029-0.049
			c0.042-0.07,0.086-0.14,0.132-0.207c0.026-0.037,0.054-0.074,0.082-0.111C3.739,4.47,3.775,4.42,3.815,4.373
			C3.888,4.285,3.963,4.2,4.045,4.117C4.127,4.036,4.213,3.96,4.3,3.887c0.047-0.039,0.097-0.074,0.146-0.111
			C4.483,3.748,4.52,3.72,4.558,3.693c0.067-0.046,0.136-0.09,0.206-0.132c0.017-0.01,0.033-0.02,0.05-0.029
			C4.895,3.485,4.978,3.44,5.062,3.4c1.382-0.665,3.09-0.429,4.235,0.717C10.443,5.264,10.68,6.972,10.015,8.354z"/>
	</g>
</g>
</svg>
