<?xml version="1.0" encoding="utf-8"?>
<!-- Generator: Adobe Illustrator 16.0.0, SVG Export Plug-In . SVG Version: 6.00 Build 0)  -->
<!DOCTYPE svg PUBLIC "-//W3C//DTD SVG 1.1//EN" "http://www.w3.org/Graphics/SVG/1.1/DTD/svg11.dtd">
<svg version="1.1" id="icon_1_" xmlns="http://www.w3.org/2000/svg" xmlns:xlink="http://www.w3.org/1999/xlink" x="0px" y="0px"
	 width="69px" height="55px" viewBox="0 0 69 55" enable-background="new 0 0 69 55" xml:space="preserve">
<g id="icon">
	<g>
		<path fill-rule="evenodd" clip-rule="evenodd" fill="#FF8671" d="M68.97,16.927c0-0.53-0.212-1.039-0.589-1.414L53.544,0.751
			C52.79,0,51.454,0,50.7,0.751L44.118,7.3L43.55,6.734c-2.38-2.37-6.253-2.367-8.63-0.004l-0.862,0.853
			c-2.391-2.21-6.133-2.174-8.459,0.141l-0.569,0.565L18.447,1.74c-0.785-0.781-2.06-0.781-2.844,0L0.767,16.502
			c-0.786,0.781-0.786,2.048,0,2.83l9.175,9.129l-0.437,0.435c-2.148,2.137-2.148,5.614,0,7.751
			c0.943,0.938,2.148,1.439,3.383,1.554c0.114,1.229,0.618,2.428,1.562,3.366c0.943,0.939,2.148,1.44,3.384,1.555
			c0.115,1.229,0.619,2.427,1.562,3.365c0.943,0.939,2.149,1.44,3.384,1.554c0.114,1.229,0.618,2.429,1.562,3.368
			c1.074,1.068,2.484,1.603,3.895,1.603s2.821-0.535,3.896-1.603l0.446-0.444c0.027,0.03,0.048,0.064,0.077,0.095l2.352,2.34
			c1.038,1.032,2.421,1.601,3.896,1.601c1.474,0,2.857-0.568,3.895-1.601c0.911-0.907,1.463-2.078,1.584-3.344
			c1.228-0.117,2.424-0.643,3.361-1.577c0.938-0.933,1.467-2.123,1.586-3.344c1.271-0.12,2.449-0.669,3.359-1.576
			c0.938-0.934,1.468-2.123,1.586-3.346c1.271-0.12,2.449-0.669,3.36-1.575c1.038-1.033,1.608-2.409,1.608-3.875
			c0-1.467-0.57-2.843-1.612-3.879l-0.93-0.919l11.682-11.622C68.758,17.967,68.97,17.458,68.97,16.927z M15.879,32.394l-1.43,1.423
			c0,0,0,0.001-0.001,0.001c-0.579,0.575-1.521,0.575-2.1-0.001c-0.58-0.576-0.58-1.515,0-2.092l1.43-1.422
			c0.579-0.577,1.522-0.577,2.102,0C16.459,30.879,16.459,31.816,15.879,32.394z M20.826,37.314l-1.431,1.423
			c-0.58,0.576-1.523,0.576-2.102,0c-0.579-0.576-0.58-1.514-0.001-2.09c0-0.001,0.001-0.001,0.001-0.001l1.43-1.424
			c0.29-0.288,0.67-0.432,1.051-0.432s0.761,0.144,1.051,0.432C21.405,35.799,21.405,36.738,20.826,37.314z M25.771,42.234
			l-1.43,1.423c-0.58,0.576-1.523,0.576-2.102,0s-0.579-1.515,0-2.091l1.431-1.423c0.58-0.577,1.523-0.575,2.102,0
			C26.351,40.721,26.351,41.658,25.771,42.234z M30.716,47.155l-1.43,1.423c-0.579,0.577-1.522,0.577-2.102,0
			c-0.579-0.576-0.579-1.515,0-2.092l1.431-1.422c0.579-0.577,1.522-0.577,2.101,0C31.296,45.641,31.296,46.578,30.716,47.155z
			 M54.789,35.807c-0.557,0.554-1.547,0.554-2.103,0l-5.54-5.511c-0.785-0.782-2.059-0.782-2.844,0
			c-0.785,0.781-0.785,2.048,0,2.829l5.54,5.512c0.579,0.576,0.579,1.515,0,2.092c-0.555,0.553-1.546,0.553-2.102,0l-5.54-5.513
			c-0.784-0.781-2.06-0.781-2.844,0c-0.786,0.781-0.786,2.048,0,2.829l5.54,5.513c0.58,0.576,0.58,1.515,0,2.091
			c-0.508,0.507-1.285,0.542-1.863,0.157c-0.056-0.074-0.11-0.149-0.178-0.217l-5.541-5.513c-0.784-0.781-2.059-0.781-2.844,0
			c-0.785,0.782-0.785,2.048,0,2.83l5.153,5.126c0.088,0.158,0.191,0.312,0.327,0.445c0.579,0.577,0.579,1.515,0,2.091
			c-0.58,0.578-1.523,0.576-2.103,0l-2.352-2.34c-0.185-0.184-0.396-0.32-0.622-0.417c0.622-1.9,0.199-4.069-1.315-5.577
			c-0.943-0.938-2.149-1.44-3.384-1.554c-0.115-1.229-0.619-2.428-1.562-3.366c-0.943-0.939-2.149-1.44-3.384-1.555
			c-0.115-1.229-0.619-2.428-1.562-3.366c-0.944-0.939-2.149-1.441-3.384-1.555c-0.115-1.229-0.619-2.428-1.562-3.366
			c-1.474-1.467-3.577-1.902-5.449-1.354l-8.242-8.201L17.025,5.984l6.582,6.549c0.785,0.782,2.059,0.782,2.844,0l1.991-1.98
			c0.731-0.726,1.959-0.771,2.767-0.142l-6.651,6.617c-1.154,1.148-1.791,2.68-1.791,4.311c0,1.632,0.636,3.163,1.791,4.312
			c1.194,1.188,2.763,1.782,4.333,1.782c1.569,0,3.138-0.594,4.333-1.782l1.821-1.813l1.357,1.35
			c1.074,1.069,2.484,1.603,3.895,1.603c1.411,0,2.821-0.533,3.895-1.603l1.014-1.008l7.169,7.133
			c0.021,0.023,0.038,0.051,0.061,0.073l2.355,2.33C55.368,34.293,55.368,35.23,54.789,35.807z M53.858,27.131l-7.232-7.195
			c-0.784-0.782-2.06-0.782-2.844,0l-2.436,2.423c-0.579,0.576-1.521,0.576-2.102,0l-2.779-2.765
			c-0.393-0.392-0.907-0.587-1.422-0.587s-1.029,0.195-1.422,0.587c-0.001,0-0.002,0.001-0.003,0.002l-3.241,3.225
			c-0.821,0.817-2.156,0.817-2.977,0c-0.395-0.393-0.612-0.918-0.612-1.481c0-0.563,0.217-1.088,0.612-1.48l8.088-8.048
			c0.001-0.001,0.002-0.001,0.003-0.002l2.268-2.245c0.813-0.808,2.134-0.808,2.946,0l1.99,1.98c0.755,0.75,2.09,0.75,2.844,0
			l6.582-6.549l11.992,11.932L53.858,27.131z"/>
	</g>
</g>
</svg>
