<?xml version="1.0" encoding="utf-8"?>
<!-- Generator: Adobe Illustrator 16.0.0, SVG Export Plug-In . SVG Version: 6.00 Build 0)  -->
<!DOCTYPE svg PUBLIC "-//W3C//DTD SVG 1.1//EN" "http://www.w3.org/Graphics/SVG/1.1/DTD/svg11.dtd">
<svg version="1.1" id="icon_1_" xmlns="http://www.w3.org/2000/svg" xmlns:xlink="http://www.w3.org/1999/xlink" x="0px" y="0px"
	 width="45px" height="45px" viewBox="0 0 45 45" enable-background="new 0 0 45 45" xml:space="preserve">
<g id="icon">
	<g>
		<path fill-rule="evenodd" clip-rule="evenodd" fill="#FF8671" d="M43.67,38.966L31.502,26.798
			c4.363-6.545,3.66-15.469-2.115-21.244c-6.58-6.579-17.247-6.579-23.827,0c-6.58,6.58-6.58,17.248,0,23.828
			c5.775,5.775,14.699,6.478,21.244,2.115l12.167,12.167c1.298,1.298,3.401,1.298,4.699,0C44.967,42.366,44.967,40.263,43.67,38.966
			z M26.534,21.83c-0.11,0.228-0.23,0.452-0.357,0.673c-0.026,0.045-0.054,0.091-0.08,0.136c-0.112,0.188-0.231,0.374-0.356,0.557
			c-0.072,0.104-0.148,0.203-0.223,0.304c-0.1,0.133-0.197,0.266-0.303,0.395c-0.197,0.236-0.402,0.469-0.625,0.691
			c-0.222,0.222-0.454,0.428-0.691,0.624c-0.129,0.106-0.262,0.204-0.395,0.304c-0.101,0.074-0.2,0.15-0.302,0.221
			c-0.184,0.127-0.37,0.246-0.56,0.358c-0.044,0.026-0.088,0.053-0.132,0.079c-0.222,0.127-0.446,0.248-0.674,0.357
			c-3.746,1.803-8.373,1.162-11.479-1.943c-3.106-3.106-3.747-7.733-1.944-11.479c0.11-0.228,0.231-0.452,0.358-0.674
			c0.026-0.044,0.052-0.089,0.079-0.133c0.113-0.189,0.232-0.376,0.358-0.56c0.071-0.102,0.146-0.201,0.221-0.301
			c0.099-0.134,0.197-0.267,0.303-0.396c0.197-0.237,0.403-0.47,0.625-0.691c0.222-0.223,0.454-0.428,0.691-0.625
			c0.129-0.106,0.262-0.203,0.395-0.302c0.1-0.076,0.201-0.152,0.303-0.224c0.183-0.125,0.369-0.244,0.557-0.356
			c0.045-0.027,0.09-0.054,0.136-0.08c0.221-0.127,0.445-0.248,0.672-0.357c3.746-1.803,8.373-1.162,11.479,1.944
			C27.695,13.457,28.337,18.085,26.534,21.83z"/>
	</g>
</g>
</svg>
