<?xml version="1.0" encoding="utf-8"?>
<!-- Generator: Adobe Illustrator 16.0.0, SVG Export Plug-In . SVG Version: 6.00 Build 0)  -->
<!DOCTYPE svg PUBLIC "-//W3C//DTD SVG 1.1//EN" "http://www.w3.org/Graphics/SVG/1.1/DTD/svg11.dtd">
<svg version="1.1" id="icon_1_" xmlns="http://www.w3.org/2000/svg" xmlns:xlink="http://www.w3.org/1999/xlink" x="0px" y="0px"
	 width="71px" height="44px" viewBox="0 0 71 44" enable-background="new 0 0 71 44" xml:space="preserve">
<g id="icon">
	<g>
		<path fill-rule="evenodd" clip-rule="evenodd" fill="#FF8671" d="M68.688,0.087H2.248c-1.112,0-2.014,0.894-2.014,1.996v39.921
			c0,1.102,0.902,1.995,2.014,1.995h66.44c1.111,0,2.014-0.894,2.014-1.995V2.083C70.702,0.98,69.8,0.087,68.688,0.087z
			 M4.261,6.335l16.831,12.999L4.261,36.021V6.335z M35.642,25.511L7.894,4.079h56.06L35.642,25.511z M24.293,21.806l10.1,7.8
			c0.363,0.28,0.8,0.421,1.237,0.421c0.431,0,0.861-0.137,1.222-0.409l10.021-7.585l18.131,17.975H5.933L24.293,21.806z
			 M50.101,19.589L66.675,7.042v28.979L50.101,19.589z"/>
	</g>
</g>
</svg>
