<?xml version="1.0" encoding="utf-8"?>
<!-- Generator: Adobe Illustrator 16.0.0, SVG Export Plug-In . SVG Version: 6.00 Build 0)  -->
<!DOCTYPE svg PUBLIC "-//W3C//DTD SVG 1.1//EN" "http://www.w3.org/Graphics/SVG/1.1/DTD/svg11.dtd">
<svg version="1.1" id="Layer_1" xmlns="http://www.w3.org/2000/svg" xmlns:xlink="http://www.w3.org/1999/xlink" x="0px" y="0px"
	 width="218.314px" height="42.136px" viewBox="0 0 218.314 42.136" enable-background="new 0 0 218.314 42.136"
	 xml:space="preserve">
<g>
	<defs>
		<rect id="SVGID_1_" width="218.314" height="42.136"/>
	</defs>
	<clipPath id="SVGID_2_">
		<use xlink:href="#SVGID_1_"  overflow="visible"/>
	</clipPath>
	<path clip-path="url(#SVGID_2_)" fill="#111820" d="M11.111,9.492C4.361,9.492,0,14.476,0,22.19
		c0,6.277,3.422,12.611,11.069,12.611c6.877,0,11.496-5.12,11.496-12.74c0-3.44-1.058-6.712-2.902-8.975
		C17.711,10.667,14.913,9.492,11.111,9.492 M11.111,30.079c-5.33,0-5.744-6.137-5.744-8.018c0-1.92,0.511-3.979,1.332-5.374
		c1.012-1.71,2.452-2.473,4.67-2.473c1.412,0,3.328,0.36,4.432,2.077c0.876,1.347,1.398,3.439,1.398,5.598
		C17.199,24.948,16.409,30.079,11.111,30.079"/>
	<path clip-path="url(#SVGID_2_)" fill="#111820" d="M55.498,0c-5.43,0-8.2,2.877-8.237,8.551c0,0.036,0,0.904,0,0.94
		c-0.161,0.004-0.36,0-0.555,0h-1.673c-1.416,0-2.405,1.007-2.405,2.448c0,1.586,1.011,2.533,2.705,2.533h1.91
		c0.01,0.09,0.018,1.297,0.018,1.498v12.739c0,1.3-0.289,1.534-0.341,1.541c-0.294,0-0.591-0.06-0.907-0.121
		c-0.34-0.067-0.692-0.137-1.066-0.137c-1.346,0-2.361,0.996-2.361,2.318c0,1.303,1.309,2.491,2.747,2.491
		c0.782,0,1.48-0.116,2.155-0.228c0.722-0.12,1.469-0.244,2.392-0.244c1.234,0,1.999,0.143,2.675,0.269
		c0.558,0.104,1.086,0.203,1.742,0.203c1.351,0,2.748-0.932,2.748-2.491c0-1.322-1.015-2.318-2.361-2.318
		c-0.375,0-0.727,0.069-1.066,0.137c-0.315,0.062-0.617,0.119-0.973,0.113c-0.003-0.003-0.275-0.221-0.275-1.491l0.005-14.279h2.565
		c2.636,0,2.92-1.772,2.92-2.533c0-0.914-0.374-2.448-2.876-2.448h-2.612c-0.001-0.049-0.002-0.932-0.002-0.996
		c0-2.702,1.053-4.072,3.128-4.072c0.437,0,0.774,0.032,1.032,0.102c-0.081,0.234-0.134,0.499-0.134,0.796
		c0,1.539,1.29,2.791,2.877,2.791c1.875,0,3.134-1.259,3.134-3.134C62.407,1.558,58.825,0,55.498,0"/>
	<path clip-path="url(#SVGID_2_)" fill="#111820" d="M37.06,0c-5.43,0-8.2,2.877-8.237,8.551c0,0.036,0,0.904-0.001,0.94
		c-0.16,0.004-0.359,0-0.554,0h-1.673c-1.416,0-2.405,1.007-2.405,2.448c0,1.586,1.011,2.533,2.705,2.533h1.91
		c0.01,0.09,0.017,1.297,0.017,1.498v12.739c0,1.3-0.288,1.534-0.34,1.541c-0.294,0-0.591-0.06-0.907-0.121
		c-0.34-0.067-0.692-0.137-1.066-0.137c-1.346,0-2.361,0.996-2.361,2.318c0,1.303,1.309,2.491,2.747,2.491
		c0.782,0,1.48-0.116,2.155-0.228c0.722-0.12,1.469-0.244,2.392-0.244c1.234,0,1.999,0.143,2.675,0.269
		c0.558,0.104,1.086,0.203,1.742,0.203c1.351,0,2.748-0.932,2.748-2.491c0-1.322-1.015-2.318-2.361-2.318
		c-0.375,0-0.727,0.069-1.066,0.137c-0.315,0.062-0.617,0.119-0.973,0.113c-0.003-0.003-0.275-0.221-0.275-1.491l0.005-14.279h2.565
		c2.636,0,2.92-1.772,2.92-2.533c0-0.914-0.374-2.448-2.876-2.448h-2.612c-0.001-0.049-0.002-0.932-0.002-0.996
		c0-2.702,1.053-4.072,3.128-4.072c0.437,0,0.774,0.032,1.032,0.102c-0.081,0.234-0.134,0.499-0.134,0.796
		c0,1.539,1.29,2.791,2.877,2.791c1.875,0,3.134-1.259,3.134-3.134C43.969,1.558,40.387,0,37.06,0"/>
	<path clip-path="url(#SVGID_2_)" fill="#111820" d="M72.799,29.995h-0.003c-0.491-0.034-0.96,0.077-1.315,0.165
		c-0.172,0.042-0.367,0.09-0.494,0.09c-0.038-0.029-0.179-0.262-0.179-0.854V12.239c0-2.549-1.611-2.747-2.104-2.747
		c-0.519,0-0.946,0.134-1.322,0.253c-0.37,0.117-0.69,0.218-1.123,0.218c-0.379,0-0.709-0.09-1.092-0.193
		c-0.479-0.13-1.022-0.278-1.738-0.278c-1.372,0-2.406,1.07-2.406,2.49c0,1.322,1.016,2.319,2.362,2.319
		c0.374,0,0.727-0.069,1.066-0.136c0.315-0.063,0.613-0.121,0.907-0.121c0.049,0,0.079,0.001,0.095,0
		c0.099,0.165,0.246,0.741,0.246,2.699v10.809c0,2.089-0.187,2.596-0.341,2.698c-0.294,0-0.592-0.059-0.907-0.121
		c-0.339-0.066-0.692-0.136-1.066-0.136c-1.346,0-2.362,0.997-2.362,2.319c0,1.303,1.126,2.49,2.362,2.49
		c0.79,0,1.511-0.118,2.208-0.232c0.723-0.117,1.47-0.24,2.339-0.24c0.899,0,1.623,0.124,2.322,0.244
		c0.655,0.112,1.332,0.229,2.095,0.229c1.351,0,2.748-0.933,2.748-2.49C75.097,30.991,74.084,29.995,72.799,29.995"/>
	<path clip-path="url(#SVGID_2_)" fill="#111820" d="M67.502,6.74c1.871,0,3.392-1.521,3.392-3.391C70.895,1.502,69.374,0,67.502,0
		c-1.846,0-3.348,1.502-3.348,3.349C64.154,5.219,65.656,6.74,67.502,6.74"/>
	<path clip-path="url(#SVGID_2_)" fill="#111820" d="M95.083,24.519c-2.048,0-2.491,1.853-2.755,2.958l-0.09,0.368
		c-0.716,2.375-3.133,2.233-4.489,2.233c-5.29,0-5.702-6.071-5.702-7.932c0-2.946,1.246-7.933,5.916-7.933
		c1.298,0,3.036,0.597,3.617,1.728c-1.223,0.408-2.033,1.426-2.033,2.687c0,1.83,1.509,3.263,3.434,3.263
		c2.465,0,4.121-1.932,4.121-4.807c0-2.221-1.282-4.534-3.257-5.885c-1.516-1.07-3.651-1.709-5.71-1.709
		c-6.958,0-11.455,5.136-11.455,13.084c0,7.199,4.464,12.226,10.855,12.226c3.044,0,6.015-1.095,7.82-3.076
		c1.251-1.347,2.304-2.722,2.304-4.63C97.658,25.7,96.479,24.519,95.083,24.519"/>
	<path clip-path="url(#SVGID_2_)" fill="#111820" d="M121.206,20.303c0-6.366-4.375-10.811-10.64-10.811
		c-3.4,0-6.536,1.501-8.604,4.123c-1.755,2.255-2.721,5.423-2.721,8.918c0,7.453,4.361,12.27,11.11,12.27
		c2.97,0,5.815-1.023,7.607-2.73c1.402-1.305,2.639-2.967,2.639-5.019c0-1.444-1.126-2.533-2.619-2.533
		c-1.782,0-2.205,1.506-2.46,2.406l-0.036,0.131c-0.679,2.318-2.504,3.021-4.872,3.021c-1.678,0-3.062-0.555-4.113-1.648
		c-1.129-1.176-1.798-2.931-1.888-4.908h13.635C120.976,23.522,121.206,22.736,121.206,20.303 M105.14,18.627
		c0.61-2.677,2.741-4.412,5.555-4.412c2.719,0,4.55,1.63,5.035,4.412H105.14z"/>
	<path clip-path="url(#SVGID_2_)" fill="#FF8671" d="M138.873,24.519c-2.619,0-2.619,2.62-2.619,3.606v-0.101
		c0,1.862-1.028,1.968-2.141,1.968c-1.146,0-2.228,0-2.228-4.2V14.432c0.059-0.001,0.129-0.002,0.212-0.002h3.773
		c2.661,0,3.22-1.331,3.22-2.447c0-2.491-2.326-2.491-3.091-2.491h-4.114V3.048c0-2.519-1.378-3.048-2.533-3.048
		c-2.577,0-2.577,2.326-2.577,3.091v5.931c0,0.193-0.002,0.349-0.009,0.469h-1.446c-1.326,0-2.533,1.166-2.533,2.448
		c0,2.49,2.291,2.49,3.392,2.49c0.305,0,0.476,0.014,0.572,0.027c0.014,0.097,0.024,0.269,0.024,0.571v10.507
		c0,3.458,0.198,4.733,0.966,6.217c1.036,1.939,3.172,3.05,5.857,3.05c6.131,0,7.766-4.019,7.766-7.319
		C141.364,25.682,140.387,24.519,138.873,24.519"/>
	<path clip-path="url(#SVGID_2_)" fill="#FF8671" d="M166.325,24.519c-0.685,0-1.231,0.203-1.626,0.603
		c-0.678,0.688-0.665,1.681-0.653,2.558l0.002,0.316c0,0.147,0.004-0.603,0.008-0.422c0.019,0.729,0.05,2.086-0.344,2.491
		c-0.034,0.034-0.097,0.099-0.304,0.099c-0.21,0-0.3-0.063-0.364-0.131c-0.513-0.54-0.425-2.308-0.383-3.157l0.191-8.23
		c0.044-2.64-0.255-5.345-2.714-7.253c-2.167-1.653-4.955-1.9-6.424-1.9c-2.292,0-4.601,0.653-6.182,1.752
		c-1.935,1.364-3.043,3.243-3.043,5.155c0,2.046,1.565,3.649,3.563,3.649c1.835,0,3.22-1.255,3.22-2.919
		c0-0.989-0.354-1.578-0.72-1.941c0.064-0.046,0.141-0.098,0.233-0.155c0.854-0.505,1.943-0.818,2.843-0.818
		c1.799,0,3.943,0.513,3.943,2.956c0,1.758-1.291,2.154-4.381,2.42c-0.261,0.022-0.518,0.045-0.788,0.072l-0.283,0.035
		c-2.065,0.251-3.85,0.468-5.811,1.626c-2.201,1.291-3.364,3.444-3.364,6.227c0,2.4,1.2,4.539,3.298,5.869
		c1.459,0.917,3.338,1.382,5.585,1.382c2.799,0,5.115-0.842,6.689-2.401c0.895,1.406,2.55,2.23,4.633,2.23
		c2.052,0,3.61-0.665,4.496-1.906c1.082-1.442,1.082-2.202,1.082-5.543C168.729,24.779,167.047,24.519,166.325,24.519
		 M157.458,23.552c-0.01,0.336-0.016,0.667-0.016,0.997c0,1.496-0.147,2.569-0.885,3.608c-1.285,1.671-3.489,1.921-4.688,1.921
		c-0.835,0-3.558-0.194-3.558-2.699c0-1.753,1.179-2.548,4.208-2.833l0.577-0.058C154.521,24.351,156.079,24.2,157.458,23.552"/>
	<path clip-path="url(#SVGID_2_)" fill="#FF8671" d="M192.273,13.571c0.469,0,0.898-0.105,1.282-0.285l-0.79-0.79
		c-0.917-0.068-1.642-0.825-1.642-1.759c0-0.978,0.794-1.772,1.771-1.772c0.934,0,1.689,0.724,1.758,1.639l0.655,0.654
		c0.118-0.352,0.186-0.717,0.186-1.078c0-3.155-2.894-4.806-5.751-4.806c-1.78,0-3.43,0.657-4.524,1.804
		c-0.655,0.686-1.073,1.507-1.237,2.415c-0.604-0.086-1.188-0.102-1.745-0.102c-4.408,0-9.095,2.737-9.095,7.809
		c0,0.931,0.143,2.161,0.726,3.291c-1.979,0.946-3.127,2.666-3.127,4.772c0,2.183,1.237,3.424,2.423,4.135
		c-1.796,1.145-2.853,2.975-2.853,5.086c0,7.007,8.998,7.552,11.755,7.552c5.522,0,11.97-2.034,11.97-7.766
		c0-3.12-2.107-5.686-5.637-6.862c-2.502-0.834-5.052-0.904-7.447-0.904h-1.587c-2.457,0-3.601-0.407-3.601-1.283
		c0-0.424,0.316-0.941,0.685-0.941c0.131,0,0.483,0.092,0.799,0.227c1.944,0.841,3.626,1.232,5.29,1.232
		c4.389,0,9.053-2.857,9.053-8.152c0-2.642-1.268-5.1-3.342-6.539c0.039-0.481,0.189-0.886,0.435-1.145
		c0.24-0.253,0.572-0.377,1.018-0.377c0.147,0,0.282,0.015,0.404,0.043c-0.251,0.343-0.451,0.784-0.451,1.327
		C189.653,12.417,190.83,13.571,192.273,13.571 M177.441,32.224c0.991-0.48,2.801-0.768,4.84-0.768c1.92,0,6.387,0.293,6.387,3
		c0,2.999-5.889,3.085-6.56,3.085c-1.247,0-3.016-0.155-4.229-0.586c-1.065-0.399-2.202-1.242-2.202-2.413
		C175.678,33.218,176.911,32.48,177.441,32.224 M182.323,21.158c-1.8,0-3.9-0.92-3.9-3.514c0-2.335,1.984-3.557,3.943-3.557
		c1.939,0,4.042,1.241,4.114,3.487C186.408,20.049,184.34,21.158,182.323,21.158"/>
	<path clip-path="url(#SVGID_2_)" fill="#111820" d="M199.9,17.742L199.9,17.742c-0.252,0.252-0.664,0.252-0.916,0l-6.549-6.549
		c-0.251-0.252-0.251-0.664,0-0.916c0.252-0.251,0.664-0.251,0.916,0l6.549,6.549C200.152,17.078,200.152,17.49,199.9,17.742"/>
	<path clip-path="url(#SVGID_2_)" fill="#111820" d="M206.533,14.361c-0.765-0.734-1.762-1.084-2.749-1.047l-4.352,0.031
		c-1.117,0-1.665,0.613-1.665,0.613l1.068,1.069c0.778-0.208,1.644-0.007,2.254,0.604c0.912,0.911,0.912,2.389,0,3.301
		c-0.91,0.911-2.389,0.911-3.301,0c-0.609-0.611-0.811-1.476-0.604-2.255l-1.068-1.068c0,0-0.613,0.547-0.613,1.665l-0.03,4.351
		c-0.037,0.987,0.311,1.986,1.045,2.751l11.345,11.345c0.579,0.579,1.526,0.579,2.104,0l7.913-7.912
		c0.578-0.579,0.578-1.525,0-2.104L206.533,14.361z"/>
</g>
</svg>
